<mxfile host="app.diagrams.net" modified="2024-01-19T08:26:22.020Z" agent="Mozilla/5.0 (Windows NT 10.0; Win64; x64) AppleWebKit/537.36 (KHTML, like Gecko) Chrome/120.0.0.0 Safari/537.36 Edg/120.0.0.0" version="22.1.21" etag="47tIawzXxpgddFCRznCX" type="device" pages="2">
  <diagram id="EVMe3rl3rncm7g3cDbRE" name="Pagina-1">
    <mxGraphModel dx="1564" dy="648" grid="1" gridSize="10" guides="1" tooltips="1" connect="1" arrows="1" fold="1" page="1" pageScale="1" pageWidth="1654" pageHeight="2336" math="0" shadow="0">
      <root>
        <mxCell id="0" />
        <mxCell id="1" parent="0" />
        <mxCell id="Kb9hgVFcj3-pudJa5dQk-42" style="edgeStyle=orthogonalEdgeStyle;rounded=0;orthogonalLoop=1;jettySize=auto;html=1;exitX=1;exitY=0.5;exitDx=0;exitDy=0;entryX=0;entryY=0.5;entryDx=0;entryDy=0;" edge="1" parent="1" source="Kb9hgVFcj3-pudJa5dQk-28" target="Kb9hgVFcj3-pudJa5dQk-40">
          <mxGeometry relative="1" as="geometry" />
        </mxCell>
        <mxCell id="Kb9hgVFcj3-pudJa5dQk-28" value="" style="rounded=1;whiteSpace=wrap;html=1;" vertex="1" parent="1">
          <mxGeometry x="593" y="780" width="140" height="80" as="geometry" />
        </mxCell>
        <mxCell id="Kb9hgVFcj3-pudJa5dQk-29" value="&lt;font style=&quot;font-size: 15px;&quot;&gt;Operation on MongoDB&lt;/font&gt;" style="text;html=1;strokeColor=none;fillColor=none;align=center;verticalAlign=middle;whiteSpace=wrap;rounded=0;" vertex="1" parent="1">
          <mxGeometry x="618" y="805" width="90" height="30" as="geometry" />
        </mxCell>
        <mxCell id="Kb9hgVFcj3-pudJa5dQk-33" style="edgeStyle=orthogonalEdgeStyle;rounded=0;orthogonalLoop=1;jettySize=auto;html=1;exitX=1;exitY=0.5;exitDx=0;exitDy=0;entryX=0;entryY=0.5;entryDx=0;entryDy=0;" edge="1" parent="1" source="Kb9hgVFcj3-pudJa5dQk-31" target="Kb9hgVFcj3-pudJa5dQk-28">
          <mxGeometry relative="1" as="geometry" />
        </mxCell>
        <mxCell id="Kb9hgVFcj3-pudJa5dQk-31" value="&lt;span style=&quot;font-size: 15px;&quot;&gt;Request&lt;/span&gt;" style="text;html=1;strokeColor=none;fillColor=none;align=center;verticalAlign=middle;whiteSpace=wrap;rounded=0;" vertex="1" parent="1">
          <mxGeometry x="400" y="805" width="90" height="30" as="geometry" />
        </mxCell>
        <mxCell id="Kb9hgVFcj3-pudJa5dQk-32" value="" style="endArrow=none;html=1;rounded=0;" edge="1" parent="1">
          <mxGeometry width="50" height="50" relative="1" as="geometry">
            <mxPoint x="425" y="834.5999999999999" as="sourcePoint" />
            <mxPoint x="465" y="834.5999999999999" as="targetPoint" />
          </mxGeometry>
        </mxCell>
        <mxCell id="Kb9hgVFcj3-pudJa5dQk-38" style="edgeStyle=orthogonalEdgeStyle;rounded=0;orthogonalLoop=1;jettySize=auto;html=1;exitX=0.1;exitY=0.5;exitDx=0;exitDy=0;exitPerimeter=0;entryX=0.5;entryY=0;entryDx=0;entryDy=0;strokeColor=#FF9999;strokeWidth=2;" edge="1" parent="1" source="Kb9hgVFcj3-pudJa5dQk-34" target="Kb9hgVFcj3-pudJa5dQk-35">
          <mxGeometry relative="1" as="geometry" />
        </mxCell>
        <mxCell id="Kb9hgVFcj3-pudJa5dQk-34" value="" style="shape=curlyBracket;whiteSpace=wrap;html=1;rounded=1;flipH=1;labelPosition=right;verticalLabelPosition=middle;align=left;verticalAlign=middle;rotation=90;fontColor=#FF9999;strokeColor=#FF9999;strokeWidth=2;" vertex="1" parent="1">
          <mxGeometry x="653" y="832" width="20" height="135" as="geometry" />
        </mxCell>
        <mxCell id="Kb9hgVFcj3-pudJa5dQk-35" value="" style="ellipse;whiteSpace=wrap;html=1;aspect=fixed;strokeColor=#FF9999;strokeWidth=2;" vertex="1" parent="1">
          <mxGeometry x="628" y="1069" width="70" height="70" as="geometry" />
        </mxCell>
        <mxCell id="Kb9hgVFcj3-pudJa5dQk-36" value="&lt;span style=&quot;font-size: 14px;&quot;&gt;False&lt;/span&gt;" style="text;html=1;strokeColor=none;fillColor=none;align=center;verticalAlign=middle;whiteSpace=wrap;rounded=0;fontStyle=1;fontColor=#FF9999;" vertex="1" parent="1">
          <mxGeometry x="618" y="1089" width="90" height="30" as="geometry" />
        </mxCell>
        <mxCell id="Kb9hgVFcj3-pudJa5dQk-37" value="&lt;font style=&quot;font-size: 13px;&quot;&gt;Exception&lt;/font&gt;" style="text;html=1;strokeColor=none;fillColor=none;align=center;verticalAlign=middle;whiteSpace=wrap;rounded=0;fontColor=#FF9999;fontStyle=1" vertex="1" parent="1">
          <mxGeometry x="618" y="867" width="90" height="30" as="geometry" />
        </mxCell>
        <mxCell id="Kb9hgVFcj3-pudJa5dQk-55" style="edgeStyle=orthogonalEdgeStyle;rounded=0;orthogonalLoop=1;jettySize=auto;html=1;exitX=1;exitY=0.5;exitDx=0;exitDy=0;entryX=0;entryY=0.5;entryDx=0;entryDy=0;fontColor=#00CC00;strokeColor=#00CC00;strokeWidth=2;" edge="1" parent="1" source="Kb9hgVFcj3-pudJa5dQk-40" target="Kb9hgVFcj3-pudJa5dQk-52">
          <mxGeometry relative="1" as="geometry" />
        </mxCell>
        <mxCell id="Kb9hgVFcj3-pudJa5dQk-40" value="" style="rounded=1;whiteSpace=wrap;html=1;" vertex="1" parent="1">
          <mxGeometry x="873" y="780" width="140" height="80" as="geometry" />
        </mxCell>
        <mxCell id="Kb9hgVFcj3-pudJa5dQk-41" value="&lt;font style=&quot;font-size: 15px;&quot;&gt;Operation on Neo4j&lt;/font&gt;" style="text;html=1;strokeColor=none;fillColor=none;align=center;verticalAlign=middle;whiteSpace=wrap;rounded=0;" vertex="1" parent="1">
          <mxGeometry x="898" y="805" width="90" height="30" as="geometry" />
        </mxCell>
        <mxCell id="Kb9hgVFcj3-pudJa5dQk-48" style="edgeStyle=orthogonalEdgeStyle;rounded=0;orthogonalLoop=1;jettySize=auto;html=1;exitX=0.1;exitY=0.5;exitDx=0;exitDy=0;exitPerimeter=0;entryX=0.5;entryY=0;entryDx=0;entryDy=0;strokeWidth=2;strokeColor=#FF9999;" edge="1" parent="1" source="Kb9hgVFcj3-pudJa5dQk-43" target="Kb9hgVFcj3-pudJa5dQk-45">
          <mxGeometry relative="1" as="geometry" />
        </mxCell>
        <mxCell id="Kb9hgVFcj3-pudJa5dQk-43" value="" style="shape=curlyBracket;whiteSpace=wrap;html=1;rounded=1;flipH=1;labelPosition=right;verticalLabelPosition=middle;align=left;verticalAlign=middle;rotation=90;fontColor=#FF9999;strokeColor=#FF9999;strokeWidth=2;" vertex="1" parent="1">
          <mxGeometry x="933" y="832" width="20" height="135" as="geometry" />
        </mxCell>
        <mxCell id="Kb9hgVFcj3-pudJa5dQk-44" value="&lt;font style=&quot;font-size: 13px;&quot;&gt;Exception&lt;/font&gt;" style="text;html=1;strokeColor=none;fillColor=none;align=center;verticalAlign=middle;whiteSpace=wrap;rounded=0;fontColor=#FF9999;fontStyle=1" vertex="1" parent="1">
          <mxGeometry x="898" y="867" width="90" height="30" as="geometry" />
        </mxCell>
        <mxCell id="Kb9hgVFcj3-pudJa5dQk-51" style="edgeStyle=orthogonalEdgeStyle;rounded=0;orthogonalLoop=1;jettySize=auto;html=1;exitX=0.5;exitY=1;exitDx=0;exitDy=0;strokeWidth=2;strokeColor=#FF9999;" edge="1" parent="1" source="Kb9hgVFcj3-pudJa5dQk-45" target="Kb9hgVFcj3-pudJa5dQk-49">
          <mxGeometry relative="1" as="geometry" />
        </mxCell>
        <mxCell id="Kb9hgVFcj3-pudJa5dQk-45" value="" style="rounded=1;whiteSpace=wrap;html=1;fontColor=#FF9999;strokeColor=#FF9999;strokeWidth=2;" vertex="1" parent="1">
          <mxGeometry x="891.5" y="970" width="103" height="43" as="geometry" />
        </mxCell>
        <mxCell id="Kb9hgVFcj3-pudJa5dQk-46" value="&lt;font style=&quot;font-size: 15px;&quot;&gt;Rollback&lt;/font&gt;" style="text;html=1;strokeColor=none;fillColor=none;align=center;verticalAlign=middle;whiteSpace=wrap;rounded=0;fontColor=#FF9999;fontStyle=1" vertex="1" parent="1">
          <mxGeometry x="898" y="976.5" width="90" height="30" as="geometry" />
        </mxCell>
        <mxCell id="Kb9hgVFcj3-pudJa5dQk-49" value="" style="ellipse;whiteSpace=wrap;html=1;aspect=fixed;strokeColor=#FF9999;strokeWidth=2;" vertex="1" parent="1">
          <mxGeometry x="908" y="1069" width="70" height="70" as="geometry" />
        </mxCell>
        <mxCell id="Kb9hgVFcj3-pudJa5dQk-50" value="&lt;span style=&quot;font-size: 14px;&quot;&gt;False&lt;/span&gt;" style="text;html=1;strokeColor=none;fillColor=none;align=center;verticalAlign=middle;whiteSpace=wrap;rounded=0;fontStyle=1;fontColor=#FF9999;" vertex="1" parent="1">
          <mxGeometry x="898" y="1089" width="90" height="30" as="geometry" />
        </mxCell>
        <mxCell id="Kb9hgVFcj3-pudJa5dQk-52" value="" style="ellipse;whiteSpace=wrap;html=1;aspect=fixed;strokeColor=#00CC00;strokeWidth=2;" vertex="1" parent="1">
          <mxGeometry x="1123" y="785" width="70" height="70" as="geometry" />
        </mxCell>
        <mxCell id="Kb9hgVFcj3-pudJa5dQk-53" value="&lt;span style=&quot;font-size: 14px;&quot;&gt;True&lt;/span&gt;" style="text;html=1;strokeColor=none;fillColor=none;align=center;verticalAlign=middle;whiteSpace=wrap;rounded=0;fontStyle=1;fontColor=#00CC00;" vertex="1" parent="1">
          <mxGeometry x="1113" y="805" width="90" height="30" as="geometry" />
        </mxCell>
      </root>
    </mxGraphModel>
  </diagram>
  <diagram id="i4bGwr3LUCROJOoWlZAt" name="Pagina-2">
    <mxGraphModel dx="1651" dy="684" grid="1" gridSize="10" guides="1" tooltips="1" connect="1" arrows="1" fold="1" page="1" pageScale="1" pageWidth="1654" pageHeight="2336" math="0" shadow="0">
      <root>
        <mxCell id="0" />
        <mxCell id="1" parent="0" />
        <mxCell id="6wn-hB_257G2T6HTZWvg-2" value="" style="rounded=1;whiteSpace=wrap;html=1;" vertex="1" parent="1">
          <mxGeometry x="634" y="790" width="140" height="80" as="geometry" />
        </mxCell>
        <mxCell id="6wn-hB_257G2T6HTZWvg-3" value="&lt;font style=&quot;font-size: 15px;&quot;&gt;Operation on MongoDB&lt;/font&gt;" style="text;html=1;strokeColor=none;fillColor=none;align=center;verticalAlign=middle;whiteSpace=wrap;rounded=0;" vertex="1" parent="1">
          <mxGeometry x="659" y="815" width="90" height="30" as="geometry" />
        </mxCell>
        <mxCell id="6wn-hB_257G2T6HTZWvg-4" style="edgeStyle=orthogonalEdgeStyle;rounded=0;orthogonalLoop=1;jettySize=auto;html=1;exitX=1;exitY=0.5;exitDx=0;exitDy=0;entryX=0;entryY=0.5;entryDx=0;entryDy=0;" edge="1" parent="1" source="6wn-hB_257G2T6HTZWvg-5" target="6wn-hB_257G2T6HTZWvg-2">
          <mxGeometry relative="1" as="geometry" />
        </mxCell>
        <mxCell id="6wn-hB_257G2T6HTZWvg-5" value="&lt;span style=&quot;font-size: 15px;&quot;&gt;Request&lt;/span&gt;" style="text;html=1;strokeColor=none;fillColor=none;align=center;verticalAlign=middle;whiteSpace=wrap;rounded=0;" vertex="1" parent="1">
          <mxGeometry x="441" y="815" width="90" height="30" as="geometry" />
        </mxCell>
        <mxCell id="6wn-hB_257G2T6HTZWvg-6" value="" style="endArrow=none;html=1;rounded=0;" edge="1" parent="1">
          <mxGeometry width="50" height="50" relative="1" as="geometry">
            <mxPoint x="466" y="844.5999999999999" as="sourcePoint" />
            <mxPoint x="506" y="844.5999999999999" as="targetPoint" />
          </mxGeometry>
        </mxCell>
        <mxCell id="6wn-hB_257G2T6HTZWvg-7" style="edgeStyle=orthogonalEdgeStyle;rounded=0;orthogonalLoop=1;jettySize=auto;html=1;exitX=0.1;exitY=0.5;exitDx=0;exitDy=0;exitPerimeter=0;entryX=0.5;entryY=0;entryDx=0;entryDy=0;strokeColor=#FF9999;strokeWidth=2;" edge="1" parent="1" source="6wn-hB_257G2T6HTZWvg-8" target="6wn-hB_257G2T6HTZWvg-9">
          <mxGeometry relative="1" as="geometry" />
        </mxCell>
        <mxCell id="6wn-hB_257G2T6HTZWvg-8" value="" style="shape=curlyBracket;whiteSpace=wrap;html=1;rounded=1;flipH=1;labelPosition=right;verticalLabelPosition=middle;align=left;verticalAlign=middle;rotation=90;fontColor=#FF9999;strokeColor=#FF9999;strokeWidth=2;" vertex="1" parent="1">
          <mxGeometry x="694" y="842" width="20" height="135" as="geometry" />
        </mxCell>
        <mxCell id="6wn-hB_257G2T6HTZWvg-9" value="" style="ellipse;whiteSpace=wrap;html=1;aspect=fixed;strokeColor=#FF9999;strokeWidth=2;" vertex="1" parent="1">
          <mxGeometry x="669" y="998" width="70" height="70" as="geometry" />
        </mxCell>
        <mxCell id="6wn-hB_257G2T6HTZWvg-10" value="&lt;span style=&quot;font-size: 14px;&quot;&gt;False&lt;/span&gt;" style="text;html=1;strokeColor=none;fillColor=none;align=center;verticalAlign=middle;whiteSpace=wrap;rounded=0;fontStyle=1;fontColor=#FF9999;" vertex="1" parent="1">
          <mxGeometry x="659" y="1018" width="90" height="30" as="geometry" />
        </mxCell>
        <mxCell id="6wn-hB_257G2T6HTZWvg-11" value="&lt;font style=&quot;font-size: 13px;&quot;&gt;Exception&lt;/font&gt;" style="text;html=1;strokeColor=none;fillColor=none;align=center;verticalAlign=middle;whiteSpace=wrap;rounded=0;fontColor=#FF9999;fontStyle=1" vertex="1" parent="1">
          <mxGeometry x="659" y="877" width="90" height="30" as="geometry" />
        </mxCell>
        <mxCell id="6wn-hB_257G2T6HTZWvg-12" style="edgeStyle=orthogonalEdgeStyle;rounded=0;orthogonalLoop=1;jettySize=auto;html=1;exitX=1;exitY=0.5;exitDx=0;exitDy=0;entryX=0;entryY=0.5;entryDx=0;entryDy=0;fontColor=#00CC00;strokeColor=#00CC00;strokeWidth=2;" edge="1" parent="1" target="6wn-hB_257G2T6HTZWvg-23">
          <mxGeometry relative="1" as="geometry">
            <mxPoint x="774" y="830" as="sourcePoint" />
          </mxGeometry>
        </mxCell>
        <mxCell id="6wn-hB_257G2T6HTZWvg-13" value="" style="rounded=1;whiteSpace=wrap;html=1;" vertex="1" parent="1">
          <mxGeometry x="1074" y="790" width="140" height="80" as="geometry" />
        </mxCell>
        <mxCell id="6wn-hB_257G2T6HTZWvg-14" value="&lt;font style=&quot;font-size: 15px;&quot;&gt;Operation on Neo4j&lt;/font&gt;" style="text;html=1;strokeColor=none;fillColor=none;align=center;verticalAlign=middle;whiteSpace=wrap;rounded=0;" vertex="1" parent="1">
          <mxGeometry x="1099" y="815" width="90" height="30" as="geometry" />
        </mxCell>
        <mxCell id="6wn-hB_257G2T6HTZWvg-15" style="edgeStyle=orthogonalEdgeStyle;rounded=0;orthogonalLoop=1;jettySize=auto;html=1;exitX=0.1;exitY=0.5;exitDx=0;exitDy=0;exitPerimeter=0;entryX=0.5;entryY=0;entryDx=0;entryDy=0;strokeWidth=2;strokeColor=#FF9999;" edge="1" parent="1" source="6wn-hB_257G2T6HTZWvg-16" target="6wn-hB_257G2T6HTZWvg-19">
          <mxGeometry relative="1" as="geometry" />
        </mxCell>
        <mxCell id="6wn-hB_257G2T6HTZWvg-16" value="" style="shape=curlyBracket;whiteSpace=wrap;html=1;rounded=1;flipH=1;labelPosition=right;verticalLabelPosition=middle;align=left;verticalAlign=middle;rotation=90;fontColor=#FF9999;strokeColor=#FF9999;strokeWidth=2;" vertex="1" parent="1">
          <mxGeometry x="1134" y="842" width="20" height="135" as="geometry" />
        </mxCell>
        <mxCell id="6wn-hB_257G2T6HTZWvg-17" value="&lt;font style=&quot;font-size: 13px;&quot;&gt;Exception&lt;/font&gt;" style="text;html=1;strokeColor=none;fillColor=none;align=center;verticalAlign=middle;whiteSpace=wrap;rounded=0;fontColor=#FF9999;fontStyle=1" vertex="1" parent="1">
          <mxGeometry x="1099" y="877" width="90" height="30" as="geometry" />
        </mxCell>
        <mxCell id="6wn-hB_257G2T6HTZWvg-19" value="" style="rounded=1;whiteSpace=wrap;html=1;fontColor=#FF9999;strokeColor=#FF9999;strokeWidth=2;" vertex="1" parent="1">
          <mxGeometry x="1080.06" y="1000" width="127.87" height="68" as="geometry" />
        </mxCell>
        <mxCell id="6wn-hB_257G2T6HTZWvg-20" value="&lt;span style=&quot;font-size: 11px;&quot;&gt;ERROR&lt;/span&gt;" style="text;html=1;strokeColor=none;fillColor=none;align=center;verticalAlign=middle;whiteSpace=wrap;rounded=0;fontColor=#FF9999;fontStyle=1;fontSize=11;" vertex="1" parent="1">
          <mxGeometry x="1099" y="999.5" width="90" height="30" as="geometry" />
        </mxCell>
        <mxCell id="6wn-hB_257G2T6HTZWvg-23" value="" style="ellipse;whiteSpace=wrap;html=1;aspect=fixed;strokeColor=#00CC00;strokeWidth=2;" vertex="1" parent="1">
          <mxGeometry x="915" y="795" width="70" height="70" as="geometry" />
        </mxCell>
        <mxCell id="6wn-hB_257G2T6HTZWvg-24" value="&lt;span style=&quot;font-size: 14px;&quot;&gt;True&lt;/span&gt;" style="text;html=1;strokeColor=none;fillColor=none;align=center;verticalAlign=middle;whiteSpace=wrap;rounded=0;fontStyle=1;fontColor=#00CC00;" vertex="1" parent="1">
          <mxGeometry x="905" y="815" width="90" height="30" as="geometry" />
        </mxCell>
        <mxCell id="6wn-hB_257G2T6HTZWvg-25" value="" style="endArrow=classic;html=1;rounded=0;strokeWidth=1.5;dashed=1;strokeColor=#00CC00;entryX=0.5;entryY=0;entryDx=0;entryDy=0;" edge="1" parent="1" target="6wn-hB_257G2T6HTZWvg-13">
          <mxGeometry width="50" height="50" relative="1" as="geometry">
            <mxPoint x="844" y="830" as="sourcePoint" />
            <mxPoint x="1104" y="760" as="targetPoint" />
            <Array as="points">
              <mxPoint x="844" y="710" />
              <mxPoint x="1144" y="710" />
            </Array>
          </mxGeometry>
        </mxCell>
        <mxCell id="6wn-hB_257G2T6HTZWvg-26" value="&lt;font color=&quot;#00cc00&quot; style=&quot;font-size: 13px; font-weight: normal;&quot;&gt;neo4jThread.start()&lt;/font&gt;" style="text;html=1;strokeColor=none;fillColor=none;align=center;verticalAlign=middle;whiteSpace=wrap;rounded=0;fontColor=#FF9999;fontStyle=1" vertex="1" parent="1">
          <mxGeometry x="954" y="680" width="90" height="30" as="geometry" />
        </mxCell>
        <mxCell id="6wn-hB_257G2T6HTZWvg-28" value="" style="ellipse;whiteSpace=wrap;html=1;aspect=fixed;fillColor=#00CC00;strokeColor=#00CC00;" vertex="1" parent="1">
          <mxGeometry x="839" y="826" width="10" height="10" as="geometry" />
        </mxCell>
        <mxCell id="6wn-hB_257G2T6HTZWvg-31" value="&lt;span style=&quot;font-weight: normal; font-size: 13px;&quot;&gt;Databases Not Synchronized&lt;/span&gt;" style="text;html=1;strokeColor=none;fillColor=none;align=center;verticalAlign=middle;whiteSpace=wrap;rounded=0;fontColor=#FF9999;fontStyle=1;fontSize=13;" vertex="1" parent="1">
          <mxGeometry x="1099" y="1026.5" width="90" height="30" as="geometry" />
        </mxCell>
      </root>
    </mxGraphModel>
  </diagram>
</mxfile>
